<mxfile host="app.diagrams.net" modified="2022-07-17T12:21:41.034Z" agent="5.0 (Windows NT 10.0; Win64; x64) AppleWebKit/537.36 (KHTML, like Gecko) Chrome/103.0.0.0 Safari/537.36" etag="AYQUz4YCXXQr5BIlbDnF" version="20.1.1" type="github">
  <diagram id="meIjcnfzDObeerKEJ6IH" name="Page-1">
    <mxGraphModel dx="1166" dy="692" grid="1" gridSize="10" guides="1" tooltips="1" connect="1" arrows="1" fold="1" page="1" pageScale="1" pageWidth="1169" pageHeight="827" math="0" shadow="0">
      <root>
        <mxCell id="0" />
        <mxCell id="1" parent="0" />
      </root>
    </mxGraphModel>
  </diagram>
</mxfile>
